<?xml version="1.0" encoding="utf-8"?>
<!-- Svg Vector Icons : http://www.onlinewebfonts.com/icon -->
<!DOCTYPE svg PUBLIC "-//W3C//DTD SVG 1.1//EN" "http://www.w3.org/Graphics/SVG/1.1/DTD/svg11.dtd">
<svg version="1.1" xmlns="http://www.w3.org/2000/svg" xmlns:xlink="http://www.w3.org/1999/xlink" x="0px" y="0px" viewBox="0 0 256 256" enable-background="new 0 0 256 256" xml:space="preserve">
<metadata> Svg Vector Icons : http://www.onlinewebfonts.com/icon </metadata>
<g><g><path fill="#fff" d="M10,133.4c0-3.6,0-7.2,0-10.8c0.1-0.6,0.2-1.3,0.2-1.9c0.5-9.5,2.2-18.9,5.1-28C22,71.6,33.6,53.6,50.3,39c17.3-15.2,37.5-24.5,60.3-28c2.8-0.4,5.6-0.7,8.4-1.1c5.9,0,11.9,0,17.9,0c0.4,0.1,0.7,0.2,1.1,0.2c9.4,0.7,18.6,2.6,27.6,5.7c27.9,9.6,49.4,27.2,64.5,52.7c8,13.5,12.9,28.1,14.9,43.7c0.5,3.5,0.7,7,1.1,10.5c0,3.6,0,7.2,0,10.8c-0.1,0.6-0.2,1.2-0.3,1.9c-0.6,9.5-2.2,18.8-5.1,27.8c-6.8,21.4-18.6,39.6-35.7,54.3c-18.2,15.7-39.2,24.9-63,27.9c-2.8,0.3-5.6,0.6-8.4,0.9c-3.7,0-7.4,0-11.1,0c-0.5-0.1-0.9-0.2-1.4-0.2c-4.3-0.5-8.7-0.8-12.9-1.5c-29.4-5.2-53.5-19.5-72.2-42.8c-14.1-17.5-22.3-37.6-25-59.9C10.5,138.9,10.3,136.2,10,133.4z M231.2,127.9c0.1-57-46.1-103.3-103.1-103.5C71.2,24.4,24.8,70.8,24.8,127.9c0,57.1,46,103.3,103.1,103.5C184.8,231.5,231.1,185.1,231.2,127.9z"/><path fill="#FFFFFF" d="M192.9,127.4c0,3,0,5.9,0,8.9c-30.9,0-61.7,0-92.5,0c0-3,0-5.9,0-8.9C131.2,127.4,162,127.4,192.9,127.4z"/><path fill="#FFFFFF" d="M100.3,100c0-3,0-5.8,0-8.8c30.8,0,61.7,0,92.6,0c0,3,0,5.9,0,8.8C162,100,131.3,100,100.3,100z"/><path fill="#FFFFFF" d="M192.9,163.6c0,3,0,5.9,0,8.8c-30.9,0-61.7,0-92.6,0c0-3,0-5.9,0-8.8C131.2,163.6,162,163.6,192.9,163.6z"/><path fill="#FFFFFF" d="M66.6,136.2c0-6,0-11.9,0-17.9c5.6,0,11.1,0,16.7,0c0,6,0,11.9,0,17.9C77.8,136.2,72.2,136.2,66.6,136.2z"/><path fill="#FFFFFF" d="M66.6,82.1c5.6,0,11.2,0,16.7,0c0,6,0,11.9,0,17.9c-5.6,0-11.1,0-16.7,0C66.6,94,66.6,88.1,66.6,82.1z"/><path fill="#FFFFFF" d="M66.7,154.5c5.6,0,11.1,0,16.7,0c0,5.9,0,11.9,0,17.9c-5.5,0-11,0-16.7,0C66.7,166.5,66.7,160.6,66.7,154.5z"/></g></g>
</svg>